<svg id="Layer_1" data-name="Layer 1" xmlns="http://www.w3.org/2000/svg" viewBox="0 0 425.2 169.09"><defs><style>.cls-1{fill:#2aaae1;}</style></defs><title>Untitled-2</title><path class="cls-1" d="M12.3,68.7,59.78,20.94v88.18A47.48,47.48,0,0,1,12.3,156.6h0ZM47.91,12.49H12.3V48.67ZM73,110.34V97.12A21.55,21.55,0,0,0,82.71,99c12,0,17.63-8.31,17.63-18.93V39.93h13.22V80.09c0,18.13-11.52,31.35-30.85,31.35a38,38,0,0,1-9.71-1.2Zm63.49-49.58V86.6c0,7.51,4.11,13.22,11.92,13.22C155.92,99.82,161,93.51,161,86V60.76h12.12v49.48H162.23l-.8-6.71c-5.11,5-9.81,7.41-16.72,7.41-11.82,0-20.43-8.92-20.43-24.24V60.76ZM219.12,103c-1.61,3.31-8.22,6-12.52,6-15.43,0-25-9.41-25-24.83s11.22-25,25-25A24.79,24.79,0,0,1,219.12,63v-3.8h12.21v43.46c0,17.63-11.41,26.54-24.73,26.54-13,0-23-7.11-24.84-18.32l11.92-2.31c.8,5.61,6.31,9.22,12.82,9.22C212.61,117.75,219,113,219,103ZM193.68,84.2c0,8.61,5.81,13.72,12.92,13.72s12.82-5.21,12.82-13.72-5.81-13.92-12.82-13.92S193.68,75.58,193.68,84.2ZM278,60.76h12.12v49.38H278v-7.22c-2.8,5.81-10.51,8.62-16,8.72-14.62.1-25.44-8.92-25.44-26.24,0-17,11.32-25.94,25.74-25.84,6.61,0,12.92,3.1,15.72,8ZM248.76,85.4c0,9.41,6.51,15,14.62,15,19.23,0,19.23-29.94,0-29.94C255.27,70.48,248.76,76,248.76,85.4Zm90.43-24.64h12.12v49.38H339.19v-7.22c-2.8,5.81-10.51,8.62-16,8.72-14.62.1-25.44-8.92-25.44-26.24,0-17,11.32-25.94,25.74-25.84,6.61,0,12.92,3.1,15.72,8ZM310,85.4c0,9.41,6.51,15,14.62,15,19.23,0,19.23-29.94,0-29.94C316.46,70.48,310,76,310,85.4Zm103-45.27v70H400.68v-6.82c-3.8,5.91-9.91,7.92-15.92,7.92-14.52,0-25.44-9.62-25.44-25.84,0-17,10.72-25.84,25.14-25.84,5.21,0,13.32,2.8,16.22,7.91V40.13ZM371.54,85.4c0,8.61,6.21,14.52,14,14.52s14.32-5.61,14.32-14.52A14.09,14.09,0,0,0,385.56,71C377.75,71,371.54,76.48,371.54,85.4Z"/></svg>